<svg xmlns="http://www.w3.org/2000/svg" width="1200" height="640" viewBox="0 0 1200 640" role="img" aria-label="Titleist did not fall. The ceiling moved.">
<rect width="1200" height="640" fill="#060b06"/>
<rect x="0.5" y="0.5" width="1199" height="639" fill="none" stroke="#1a2e1a"/>
<text x="48" y="64" fill="#22c55e" font-family="'Barlow Condensed','Arial Narrow',Arial,sans-serif" font-size="34" font-weight="700" font-style="italic" letter-spacing="1">TITLEIST DID NOT FALL. THE CEILING MOVED.</text>
<text x="48" y="98" fill="#8aa88a" font-family="'JetBrains Mono',Menlo,Consolas,monospace" font-size="17">DI score by month, 2026. Titleist searched exactly as much in August as in July.</text>
<line x1="110" x2="900" y1="530" y2="530" stroke="#1a2e1a"/><text x="94" y="536" text-anchor="end" fill="#6b8f6b" font-family="'JetBrains Mono',Menlo,Consolas,monospace" font-size="15">0</text>
<line x1="110" x2="900" y1="435" y2="435" stroke="#1a2e1a"/><text x="94" y="441" text-anchor="end" fill="#6b8f6b" font-family="'JetBrains Mono',Menlo,Consolas,monospace" font-size="15">25</text>
<line x1="110" x2="900" y1="340" y2="340" stroke="#1a2e1a"/><text x="94" y="346" text-anchor="end" fill="#6b8f6b" font-family="'JetBrains Mono',Menlo,Consolas,monospace" font-size="15">50</text>
<line x1="110" x2="900" y1="245" y2="245" stroke="#1a2e1a"/><text x="94" y="251" text-anchor="end" fill="#6b8f6b" font-family="'JetBrains Mono',Menlo,Consolas,monospace" font-size="15">75</text>
<line x1="110" x2="900" y1="150" y2="150" stroke="#1a2e1a"/><text x="94" y="156" text-anchor="end" fill="#6b8f6b" font-family="'JetBrains Mono',Menlo,Consolas,monospace" font-size="15">100</text>
<text x="110" y="566" text-anchor="middle" fill="#6b8f6b" font-family="'JetBrains Mono',Menlo,Consolas,monospace" font-size="15">JAN</text>
<text x="222.85714285714286" y="566" text-anchor="middle" fill="#6b8f6b" font-family="'JetBrains Mono',Menlo,Consolas,monospace" font-size="15">FEB</text>
<text x="335.7142857142857" y="566" text-anchor="middle" fill="#6b8f6b" font-family="'JetBrains Mono',Menlo,Consolas,monospace" font-size="15">MAR</text>
<text x="448.57142857142856" y="566" text-anchor="middle" fill="#6b8f6b" font-family="'JetBrains Mono',Menlo,Consolas,monospace" font-size="15">APR</text>
<text x="561.4285714285714" y="566" text-anchor="middle" fill="#6b8f6b" font-family="'JetBrains Mono',Menlo,Consolas,monospace" font-size="15">MAY</text>
<text x="674.2857142857143" y="566" text-anchor="middle" fill="#6b8f6b" font-family="'JetBrains Mono',Menlo,Consolas,monospace" font-size="15">JUN</text>
<text x="787.1428571428571" y="566" text-anchor="middle" fill="#6b8f6b" font-family="'JetBrains Mono',Menlo,Consolas,monospace" font-size="15">JUL</text>
<text x="900" y="566" text-anchor="middle" fill="#6b8f6b" font-family="'JetBrains Mono',Menlo,Consolas,monospace" font-size="15">AUG</text>
<polyline points="110,150 222.85714285714286,150 335.7142857142857,150 448.57142857142856,150 561.4285714285714,150 674.2857142857143,150 787.1428571428571,150 900,360.14" fill="none" stroke="#8aa88a" stroke-width="4" stroke-linejoin="round"/>
<circle cx="110" cy="150" r="5" fill="#8aa88a"/><circle cx="222.85714285714286" cy="150" r="5" fill="#8aa88a"/><circle cx="335.7142857142857" cy="150" r="5" fill="#8aa88a"/><circle cx="448.57142857142856" cy="150" r="5" fill="#8aa88a"/><circle cx="561.4285714285714" cy="150" r="5" fill="#8aa88a"/><circle cx="674.2857142857143" cy="150" r="5" fill="#8aa88a"/><circle cx="787.1428571428571" cy="150" r="5" fill="#8aa88a"/><circle cx="900" cy="360.14" r="5" fill="#8aa88a"/>
<text x="918" y="367.14" fill="#8aa88a" font-family="'JetBrains Mono',Menlo,Consolas,monospace" font-size="18" font-weight="700">Titleist 44.7</text>
<polyline points="110,436.52 222.85714285714286,436.52 335.7142857142857,467.68 448.57142857142856,453.62 561.4285714285714,453.62 674.2857142857143,436.52 787.1428571428571,436.52 900,150" fill="none" stroke="#22c55e" stroke-width="5" stroke-linejoin="round"/>
<circle cx="110" cy="436.52" r="5" fill="#22c55e"/><circle cx="222.85714285714286" cy="436.52" r="5" fill="#22c55e"/><circle cx="335.7142857142857" cy="467.68" r="5" fill="#22c55e"/><circle cx="448.57142857142856" cy="453.62" r="5" fill="#22c55e"/><circle cx="561.4285714285714" cy="453.62" r="5" fill="#22c55e"/><circle cx="674.2857142857143" cy="436.52" r="5" fill="#22c55e"/><circle cx="787.1428571428571" cy="436.52" r="5" fill="#22c55e"/><circle cx="900" cy="150" r="5" fill="#22c55e"/>
<text x="918" y="157" fill="#22c55e" font-family="'JetBrains Mono',Menlo,Consolas,monospace" font-size="18" font-weight="700">Good Good Golf 100.0</text>
<text x="1152" y="614" text-anchor="end" fill="#6b8f6b" font-family="'JetBrains Mono',Menlo,Consolas,monospace" font-size="15" letter-spacing="2">DORMIED INDEX</text>
</svg>
